<?xml version="1.0" encoding="UTF-8"?>
<svg xmlns="http://www.w3.org/2000/svg" width="538" height="201" viewBox="0 0 538 201">
<rect width="100%" height="100%" fill="#ffffff"/>
<g transform="translate(0,0)"><rect x="0" y="0" width="260" height="177" fill="#fdfdfa" stroke="#c9c5ba" stroke-width="1"/><path d="M0.0 174.6 L4.7 174.7 L13.0 172.6 L26.0 173.1 L33.1 174.8 L42.5 172.7 L55.5 172.7 L63.8 174.4 L79.2 170.4 L93.4 163.3 L115.8 130.4 L126.5 121.8 L130.0 120.2 L134.7 121.7 L143.0 128.5 L153.6 146.5 L165.5 161.1 L182.0 171.9 L196.2 173.5 L204.5 172.1 L212.7 174.3 L225.7 174.1 L234.0 172.2 L242.3 174.1 L258.8 174.0" fill="none" stroke="#20201c" stroke-width="1.50" stroke-linecap="round" stroke-linejoin="round"/><path d="M0.0 160.4 L4.7 160.5 L11.8 163.5 L18.9 160.9 L26.0 162.2 L33.1 160.0 L41.4 163.3 L48.5 161.0 L55.5 162.1 L62.6 159.3 L70.9 161.4 L83.9 154.3 L100.5 129.4 L121.7 75.8 L124.1 72.8 L127.6 71.7 L134.7 73.2 L138.3 77.3 L151.3 105.7 L160.7 131.7 L171.4 149.5 L174.9 153.7 L182.0 155.5 L189.1 160.6 L197.4 160.6 L203.3 162.9 L211.5 159.8 L219.8 162.3 L226.9 161.2 L232.8 163.4 L241.1 160.1 L249.4 162.2 L258.8 161.2" fill="none" stroke="#20201c" stroke-width="1.50" stroke-linecap="round" stroke-linejoin="round"/><path d="M0.0 150.0 L10.6 149.2 L26.0 150.7 L41.4 149.0 L57.9 150.0 L74.5 145.3 L83.9 139.9 L89.8 132.0 L96.9 116.7 L120.5 48.4 L125.3 39.8 L130.0 36.4 L133.5 37.7 L138.3 44.8 L161.9 113.4 L171.4 133.1 L178.5 142.2 L186.7 146.7 L208.0 150.1 L226.9 148.9 L243.5 150.6 L258.8 149.0" fill="none" stroke="#20201c" stroke-width="1.50" stroke-linecap="round" stroke-linejoin="round"/><path d="M0.0 139.1 L4.7 139.9 L11.8 137.3 L18.9 138.5 L26.0 136.3 L34.3 139.5 L41.4 137.1 L48.5 138.1 L55.5 135.3 L63.8 137.9 L70.9 134.3 L78.0 132.7 L93.4 115.5 L106.4 83.4 L117.0 50.9 L126.5 36.6 L130.0 34.3 L133.5 36.7 L143.0 50.9 L153.6 83.4 L166.6 115.6 L182.0 132.6 L189.1 134.3 L196.2 138.0 L204.5 135.3 L211.5 138.1 L218.6 137.0 L225.7 139.6 L234.0 136.3 L241.1 138.5 L248.2 137.2 L255.3 139.9 L258.8 139.8" fill="none" stroke="#20201c" stroke-width="1.50" stroke-linecap="round" stroke-linejoin="round"/><path d="M0.0 125.2 L13.0 126.8 L24.8 126.5 L33.1 124.6 L41.4 125.8 L54.4 125.3 L62.6 122.6 L72.1 122.0 L82.7 117.8 L87.5 113.6 L100.5 96.2 L121.7 57.8 L125.3 54.4 L128.8 53.4 L133.5 54.5 L138.3 58.8 L161.9 99.8 L171.4 113.0 L176.1 117.1 L204.5 125.7 L212.7 124.6 L224.5 125.0 L234.0 127.1 L242.3 125.7 L258.8 125.8" fill="none" stroke="#20201c" stroke-width="1.50" stroke-linecap="round" stroke-linejoin="round"/><path d="M0.0 114.5 L4.7 113.7 L10.6 114.7 L17.7 112.5 L27.2 115.3 L33.1 113.1 L41.4 113.3 L47.3 110.6 L55.5 112.5 L63.8 109.4 L69.7 109.1 L78.0 104.0 L83.9 103.8 L87.5 102.2 L99.3 92.9 L108.7 80.7 L114.6 77.2 L121.7 70.5 L134.7 68.0 L139.5 70.1 L159.5 92.1 L166.6 95.4 L174.9 103.1 L182.0 105.4 L187.9 109.1 L197.4 108.3 L204.5 111.7 L211.5 111.6 L218.6 114.4 L226.9 111.9 L234.0 114.1 L241.1 113.4 L248.2 115.9 L258.8 112.9" fill="none" stroke="#20201c" stroke-width="1.50" stroke-linecap="round" stroke-linejoin="round"/><path d="M0.0 102.6 L17.7 102.9 L26.0 99.8 L34.3 101.5 L40.2 99.8 L48.5 99.4 L56.7 95.0 L63.8 95.0 L69.7 92.2 L78.0 90.1 L85.1 84.0 L93.4 81.2 L100.5 76.2 L107.5 73.2 L115.8 65.8 L128.8 63.1 L137.1 65.9 L145.4 66.6 L159.5 75.8 L166.6 82.4 L174.9 84.4 L182.0 89.0 L189.1 91.2 L196.2 96.0 L204.5 96.0 L211.5 98.5 L218.6 98.7 L226.9 102.4 L234.0 100.8 L241.1 102.0 L248.2 101.0 L255.3 103.8 L258.8 104.0" fill="none" stroke="#20201c" stroke-width="1.50" stroke-linecap="round" stroke-linejoin="round"/><path d="M0.0 90.6 L10.6 88.9 L20.1 90.6 L33.1 88.0 L40.2 84.9 L49.6 84.6 L62.6 78.4 L70.9 72.1 L79.2 69.1 L92.2 59.5 L101.6 50.8 L107.5 48.9 L115.8 44.1 L130.0 39.3 L144.2 44.0 L152.5 49.2 L159.5 51.6 L180.8 69.3 L189.1 72.3 L197.4 78.2 L210.4 84.8 L219.8 85.1 L241.1 90.9 L249.4 89.2 L258.8 90.4" fill="none" stroke="#20201c" stroke-width="1.50" stroke-linecap="round" stroke-linejoin="round"/><path d="M0.0 79.8 L4.7 79.2 L10.6 80.2 L18.9 76.4 L27.2 78.3 L33.1 75.3 L40.2 74.8 L48.5 68.1 L55.5 67.2 L62.6 61.1 L69.7 57.3 L78.0 46.5 L85.1 42.1 L92.2 33.6 L99.3 28.7 L108.7 17.1 L115.8 14.9 L121.7 10.9 L130.0 11.9 L137.1 9.6 L145.4 15.4 L151.3 18.1 L159.5 27.8 L167.8 32.6 L174.9 41.8 L182.0 47.5 L189.1 56.8 L197.4 60.1 L203.3 65.8 L211.5 69.0 L218.6 75.0 L226.9 74.5 L234.0 77.6 L241.1 77.0 L249.4 81.0 L258.8 78.5" fill="none" stroke="#20201c" stroke-width="1.50" stroke-linecap="round" stroke-linejoin="round"/><path d="M0.0 67.2 L17.7 66.8 L26.0 63.3 L35.5 61.0 L48.5 55.0 L75.6 27.6 L98.1 -5.0 L113.5 -22.3 L119.4 -27.0 L128.8 -30.1 L144.2 -24.2 L152.5 -16.8 L195.0 40.2 L200.9 46.2 L210.4 53.1 L228.1 63.3 L239.9 65.6 L248.2 65.7 L258.8 68.5" fill="none" stroke="#20201c" stroke-width="1.50" stroke-linecap="round" stroke-linejoin="round"/><path d="M0.0 56.5 L4.7 56.0 L10.6 52.8 L18.9 54.2 L26.0 50.8 L31.9 49.8 L41.4 41.7 L49.6 37.8 L62.6 23.6 L70.9 8.4 L78.0 -1.1 L92.2 -26.2 L101.6 -46.0 L114.6 -62.9 L130.0 -72.3 L132.4 -71.9 L144.2 -64.3 L152.5 -51.9 L158.4 -45.4 L173.7 -17.6 L182.0 0.0 L189.1 9.0 L197.4 22.5 L203.3 28.6 L211.5 39.8 L219.8 43.2 L226.9 48.4 L234.0 49.9 L241.1 54.8 L249.4 53.8 L258.8 55.7" fill="none" stroke="#20201c" stroke-width="1.50" stroke-linecap="round" stroke-linejoin="round"/><path d="M0.0 43.5 L10.6 43.7 L18.9 39.2 L26.0 38.4 L39.0 32.2 L55.5 14.1 L70.9 -9.5 L92.2 -57.0 L108.7 -90.2 L120.5 -105.0 L125.3 -107.0 L135.9 -106.7 L138.3 -105.7 L150.1 -92.2 L167.8 -56.8 L190.3 -7.3 L203.3 12.7 L217.5 28.9 L221.0 32.1 L232.8 38.1 L241.1 39.1 L249.4 43.5 L258.8 43.4" fill="none" stroke="#20201c" stroke-width="1.50" stroke-linecap="round" stroke-linejoin="round"/><path d="M0.0 30.6 L4.7 29.9 L11.8 30.9 L26.0 26.4 L33.1 20.4 L41.4 16.2 L54.4 1.7 L72.1 -30.7 L85.1 -60.3 L94.5 -85.8 L107.5 -113.3 L121.7 -133.7 L124.1 -135.5 L127.6 -136.1 L133.5 -135.6 L137.1 -133.9 L152.5 -114.2 L165.5 -85.2 L174.9 -60.0 L189.1 -28.7 L205.6 1.9 L218.6 15.5 L234.0 27.1 L242.3 28.1 L248.2 30.1 L258.8 30.7" fill="none" stroke="#20201c" stroke-width="1.50" stroke-linecap="round" stroke-linejoin="round"/><path d="M0.0 21.2 L4.7 20.8 L11.8 16.6 L18.9 16.9 L26.0 13.1 L33.1 11.5 L41.4 1.9 L49.6 -5.2 L63.8 -25.8 L92.2 -91.1 L100.5 -114.0 L112.3 -137.2 L117.0 -143.6 L130.0 -152.2 L132.4 -151.8 L141.8 -145.4 L145.4 -141.1 L160.7 -110.9 L173.7 -79.7 L183.2 -53.4 L196.2 -26.9 L204.5 -15.2 L211.5 -2.5 L225.7 9.8 L234.0 11.9 L241.1 17.7 L248.2 17.9 L255.3 20.3 L258.8 20.3" fill="none" stroke="#20201c" stroke-width="1.50" stroke-linecap="round" stroke-linejoin="round"/><path d="M0.0 7.9 L7.1 7.9 L18.9 5.2 L36.6 -3.3 L48.5 -13.9 L63.8 -36.4 L72.1 -51.7 L98.1 -111.5 L112.3 -139.0 L119.4 -148.4 L124.1 -151.6 L128.8 -152.9 L133.5 -151.6 L140.6 -147.3 L148.9 -137.7 L158.4 -119.5 L193.8 -40.0 L199.7 -29.7 L208.0 -19.1 L223.4 -3.1 L228.1 0.3 L258.8 9.0" fill="none" stroke="#20201c" stroke-width="1.50" stroke-linecap="round" stroke-linejoin="round"/><path d="M0.0 -4.3 L4.7 -5.5 L11.8 -4.2 L17.7 -6.8 L26.0 -6.7 L33.1 -13.2 L41.4 -16.4 L48.5 -23.9 L54.4 -27.6 L70.9 -53.4 L78.0 -68.0 L85.1 -79.2 L93.4 -99.3 L107.5 -125.5 L114.6 -132.2 L122.9 -142.3 L134.7 -143.6 L138.3 -141.8 L153.6 -123.2 L166.6 -99.7 L174.9 -79.3 L187.9 -55.3 L196.2 -44.0 L205.6 -27.8 L211.5 -23.5 L218.6 -16.1 L226.9 -13.5 L234.0 -7.1 L241.1 -6.7 L248.2 -3.8 L255.3 -5.7 L258.8 -5.4" fill="none" stroke="#20201c" stroke-width="1.50" stroke-linecap="round" stroke-linejoin="round"/></g><text x="130" y="194" font-family="Menlo, Consolas, 'DejaVu Sans Mono', monospace" font-size="13" text-anchor="middle" fill="#3a382f">occlude = false</text><g transform="translate(278,0)"><rect x="0" y="0" width="260" height="177" fill="#fdfdfa" stroke="#c9c5ba" stroke-width="1"/><path d="M0.0 174.6 L4.7 174.7 L13.0 172.6 L26.0 173.1 L33.1 174.8 L42.5 172.7 L55.5 172.7 L63.8 174.4 L79.2 170.4 L93.4 163.3 L115.8 130.4 L126.5 121.8 L130.0 120.2 L134.7 121.7 L143.0 128.5 L153.6 146.5 L165.5 161.1 L182.0 171.9 L196.2 173.5 L204.5 172.1 L212.7 174.3 L225.7 174.1 L234.0 172.2 L242.3 174.1 L258.8 174.0" fill="none" stroke="#20201c" stroke-width="1.50" stroke-linecap="round" stroke-linejoin="round"/><path d="M0.0 160.4 L4.7 160.5 L11.8 163.5 L18.9 160.9 L26.0 162.2 L33.1 160.0 L41.4 163.3 L48.5 161.0 L55.5 162.1 L62.6 159.3 L70.9 161.4 L83.9 154.3 L100.5 129.4 L121.7 75.8 L124.1 72.8 L127.6 71.7 L134.7 73.2 L138.3 77.3 L151.3 105.7 L160.7 131.7 L171.4 149.5 L174.9 153.7 L182.0 155.5 L189.1 160.6 L197.4 160.6 L203.3 162.9 L211.5 159.8 L219.8 162.3 L226.9 161.2 L232.8 163.4 L241.1 160.1 L249.4 162.2 L258.8 161.2" fill="none" stroke="#20201c" stroke-width="1.50" stroke-linecap="round" stroke-linejoin="round"/><path d="M0.0 150.0 L10.6 149.2 L26.0 150.7 L41.4 149.0 L57.9 150.0 L74.5 145.3 L83.9 139.9 L89.8 132.0 L96.9 116.7 L120.5 48.4 L125.3 39.8 L130.0 36.4 L133.5 37.7 L138.3 44.8 L161.9 113.4 L171.4 133.1 L178.5 142.2 L186.7 146.7 L208.0 150.1 L226.9 148.9 L243.5 150.6 L258.8 149.0" fill="none" stroke="#20201c" stroke-width="1.50" stroke-linecap="round" stroke-linejoin="round"/><path d="M0.0 139.1 L4.7 139.9 L11.8 137.3 L18.9 138.5 L26.0 136.3 L34.3 139.5 L41.4 137.1 L48.5 138.1 L55.5 135.3 L63.8 137.9 L70.9 134.3 L78.0 132.7 L93.4 115.5 L106.4 83.4 L117.0 50.9 L126.5 36.6 L130.0 34.3 L133.5 36.7 L143.0 50.9 L153.6 83.4 L166.6 115.6 L182.0 132.6 L189.1 134.3 L196.2 138.0 L204.5 135.3 L211.5 138.1 L218.6 137.0 L225.7 139.6 L234.0 136.3 L241.1 138.5 L248.2 137.2 L255.3 139.9 L258.8 139.8" fill="none" stroke="#20201c" stroke-width="1.50" stroke-linecap="round" stroke-linejoin="round"/><path d="M0.0 125.2 L13.0 126.8 L24.8 126.5 L33.1 124.6 L41.4 125.8 L53.2 125.4 L62.6 122.6 L73.3 121.7 L81.5 118.4 L86.3 114.9 L102.8 92.1" fill="none" stroke="#20201c" stroke-width="1.50" stroke-linecap="round" stroke-linejoin="round"/><path d="M156.0 89.1 L169.0 109.9 L173.7 115.4 L177.3 117.6 L204.5 125.7 L212.7 124.6 L224.5 125.0 L234.0 127.1 L242.3 125.7 L258.8 125.8" fill="none" stroke="#20201c" stroke-width="1.50" stroke-linecap="round" stroke-linejoin="round"/><path d="M0.0 114.5 L4.7 113.7 L10.6 114.7 L17.7 112.5 L27.2 115.3 L33.1 113.1 L41.4 113.3 L47.3 110.6 L55.5 112.5 L63.8 109.4 L69.7 109.1 L78.0 104.0 L83.9 103.8 L87.5 102.2 L99.3 92.9 L106.4 83.2" fill="none" stroke="#20201c" stroke-width="1.50" stroke-linecap="round" stroke-linejoin="round"/><path d="M154.8 86.3 L159.5 92.1 L166.6 95.4 L174.9 103.1 L182.0 105.4 L189.1 109.5 L197.4 108.3 L204.5 111.7 L211.5 111.6 L218.6 114.4 L226.9 111.9 L234.0 114.1 L241.1 113.4 L248.2 115.9 L258.8 112.9" fill="none" stroke="#20201c" stroke-width="1.50" stroke-linecap="round" stroke-linejoin="round"/><path d="M0.0 102.6 L17.7 102.9 L26.0 99.8 L34.3 101.5 L40.2 99.8 L48.5 99.4 L56.7 95.0 L63.8 95.0 L69.7 92.2 L78.0 90.1 L85.1 84.0 L93.4 81.2 L109.9 71.2" fill="none" stroke="#20201c" stroke-width="1.50" stroke-linecap="round" stroke-linejoin="round"/><path d="M150.1 70.2 L159.5 75.8 L166.6 82.4 L174.9 84.4 L182.0 89.0 L189.1 91.2 L196.2 96.0 L204.5 96.0 L211.5 98.5 L218.6 98.7 L226.9 102.4 L234.0 100.8 L241.1 102.0 L248.2 101.0 L255.3 103.8 L258.8 104.0" fill="none" stroke="#20201c" stroke-width="1.50" stroke-linecap="round" stroke-linejoin="round"/><path d="M0.0 90.6 L10.6 88.9 L20.1 90.6 L33.1 88.0 L40.2 84.9 L49.6 84.6 L62.6 78.4 L70.9 72.1 L79.2 69.1 L92.2 59.5 L100.5 51.5 L107.5 48.9 L115.8 44.1 L121.7 42.7" fill="none" stroke="#20201c" stroke-width="1.50" stroke-linecap="round" stroke-linejoin="round"/><path d="M138.3 42.4 L144.2 44.0 L152.5 49.2 L159.5 51.6 L180.8 69.3 L189.1 72.3 L197.4 78.2 L210.4 84.8 L219.8 85.1 L241.1 90.9 L249.4 89.2 L258.8 90.4" fill="none" stroke="#20201c" stroke-width="1.50" stroke-linecap="round" stroke-linejoin="round"/><path d="M0.0 79.8 L4.7 79.2 L10.6 80.2 L18.9 76.4 L27.2 78.3 L33.1 75.3 L40.2 74.8 L48.5 68.1 L55.5 67.2 L62.6 61.1 L69.7 57.3 L78.0 46.5 L85.1 42.1 L92.2 33.6 L99.3 28.7 L108.7 17.1 L115.8 14.9 L121.7 10.9 L130.0 11.9 L137.1 9.6 L145.4 15.4 L151.3 18.1 L159.5 27.8 L167.8 32.6 L174.9 41.8 L182.0 47.5 L189.1 56.8 L197.4 60.1 L203.3 65.8 L211.5 69.0 L218.6 75.0 L226.9 74.5 L234.0 77.6 L241.1 77.0 L249.4 81.0 L258.8 78.5" fill="none" stroke="#20201c" stroke-width="1.50" stroke-linecap="round" stroke-linejoin="round"/><path d="M0.0 67.2 L17.7 66.8 L47.3 55.9 L63.8 40.5 L75.6 27.6 L93.4 1.5" fill="none" stroke="#20201c" stroke-width="1.50" stroke-linecap="round" stroke-linejoin="round"/><path d="M165.5 1.1 L196.2 41.7 L209.2 52.3 L228.1 63.3 L239.9 65.6 L248.2 65.7 L258.8 68.5" fill="none" stroke="#20201c" stroke-width="1.50" stroke-linecap="round" stroke-linejoin="round"/><path d="M0.0 56.5 L4.7 56.0 L10.6 52.8 L18.9 54.2 L26.0 50.8 L31.9 49.8 L41.4 41.7 L48.5 38.9 L62.6 23.6 L70.9 8.4 L76.8 0.7" fill="none" stroke="#20201c" stroke-width="1.50" stroke-linecap="round" stroke-linejoin="round"/><path d="M182.0 0.0 L189.1 9.0 L197.4 22.5 L212.7 40.7 L219.8 43.2 L226.9 48.4 L234.0 49.9 L241.1 54.8 L249.4 53.8 L258.8 55.7" fill="none" stroke="#20201c" stroke-width="1.50" stroke-linecap="round" stroke-linejoin="round"/><path d="M0.0 43.5 L10.6 43.7 L18.9 39.2 L27.2 37.9 L40.2 31.4 L55.5 14.1 L63.8 1.4" fill="none" stroke="#20201c" stroke-width="1.50" stroke-linecap="round" stroke-linejoin="round"/><path d="M196.2 1.5 L204.5 14.2 L221.0 32.1 L232.8 38.1 L241.1 39.1 L249.4 43.5 L258.8 43.4" fill="none" stroke="#20201c" stroke-width="1.50" stroke-linecap="round" stroke-linejoin="round"/><path d="M0.0 30.6 L4.7 29.9 L11.8 30.9 L26.0 26.4 L33.1 20.4 L41.4 16.2 L54.4 1.7" fill="none" stroke="#20201c" stroke-width="1.50" stroke-linecap="round" stroke-linejoin="round"/><path d="M204.5 0.4 L218.6 15.5 L234.0 27.1 L242.3 28.1 L248.2 30.1 L258.8 30.7" fill="none" stroke="#20201c" stroke-width="1.50" stroke-linecap="round" stroke-linejoin="round"/><path d="M0.0 21.2 L4.7 20.8 L11.8 16.6 L18.9 16.9 L26.0 13.1 L31.9 12.1 L43.7 0.1" fill="none" stroke="#20201c" stroke-width="1.50" stroke-linecap="round" stroke-linejoin="round"/><path d="M215.1 0.8 L225.7 9.8 L234.0 11.9 L241.1 17.7 L248.2 17.9 L255.3 20.3 L258.8 20.3" fill="none" stroke="#20201c" stroke-width="1.50" stroke-linecap="round" stroke-linejoin="round"/><path d="M0.0 7.9 L5.9 8.1 L15.4 6.4 L28.4 0.4" fill="none" stroke="#20201c" stroke-width="1.50" stroke-linecap="round" stroke-linejoin="round"/><path d="M228.1 0.3 L258.8 9.0" fill="none" stroke="#20201c" stroke-width="1.50" stroke-linecap="round" stroke-linejoin="round"/></g><text x="408" y="194" font-family="Menlo, Consolas, 'DejaVu Sans Mono', monospace" font-size="13" text-anchor="middle" fill="#3a382f">occlude = true (default)</text>
</svg>
